# xmcd
#
# Track frame offsets: 
#        150
#        19926
#        31255
#        49488
#        63064
#        76216
#        93712
#        113728
#        130451
#        152847
#        174839
#
# Disc length: 2669 seconds
#
# Revision: 0
# Processed by: cddbd v1.5.2PL0 Copyright (c) Steve Scherf et al.
# Submitted via: ExactAudioCopy v1.2
#
DISCID=880a6b0b
DTITLE=Little G Weevil - Back in Alabama
DYEAR=2018
DGENRE=Blues
TTITLE0=When the King Was Told
TTITLE1=She Don'T Know
TTITLE2=Braggin'
TTITLE3=Thank You for the Cruise
TTITLE4=World Is Mine
TTITLE5=Gulf Coast Jam
TTITLE6=Keep Going
TTITLE7=John Is the Man (John Mcafee)
TTITLE8=Sasha Said
TTITLE9=Poor Black Mattie
TTITLE10=Angel Child
EXTD=
EXTT0=
EXTT1=
EXTT2=
EXTT3=
EXTT4=
EXTT5=
EXTT6=
EXTT7=
EXTT8=
EXTT9=
EXTT10=
PLAYORDER=
